<svg xmlns="http://www.w3.org/2000/svg" width="26" height="15" viewBox="0 0 26 15"><g><g><path fill="#282828" d="M19.956 2.856v1.43h2.559c.98 0 1.851.351 2.477 1.026C25.646 6.014 26 7.039 26 8.254v4.776a.475.475 0 0 1-.462.46h-1.389A1.811 1.811 0 0 1 22.352 15c-.899 0-1.634-.647-1.797-1.51h-7.187A1.811 1.811 0 0 1 11.572 15a1.842 1.842 0 0 1-1.824-1.538c-.055.027-.082.027-.136.027H7.87a.475.475 0 0 1-.463-.459V2.75c.027-.028.027-.028.027-.055s.027-.027.027-.054l.027-.026c.028 0 .028-.027.055-.055L9.993.131a.451.451 0 0 1 .326-.135h6.697c.109 0 .245.054.327.135l2.45 2.428c.027 0 .027.028.054.055.027 0 .027.026.027.026 0 .027.028.027.028.054.027.027.027.027.027.055v.027c0 .026 0 .053.027.08zm-5.907-.431h4.301L16.826.913h-2.777zm-5.09 0h4.137V.913h-2.613zm3.457 10.794a.902.902 0 0 0-.899-.89.902.902 0 0 0-.898.89c0 .486.408.89.898.89.49 0 .899-.404.899-.89zm6.587-8.474v-1.43H8.333v9.256h1.252c.054 0 .136.027.19.055a1.857 1.857 0 0 1 1.742-1.242c.817 0 1.497.513 1.742 1.242.028-.028.082-.028.137-.028h5.58V4.745zm4.193 8.474a.902.902 0 0 0-.899-.89.902.902 0 0 0-.898.89c0 .486.408.89.898.89.49 0 .899-.404.899-.89zm-3.24-8.015v7.367h.626a1.825 1.825 0 0 1 1.715-1.214c.817 0 1.497.513 1.742 1.214h1.008V8.254c0-1.89-.98-3.05-2.56-3.05zM2.452 4.988h3.566c.245 0 .463.216.463.46a.475.475 0 0 1-.463.458H2.452a.475.475 0 0 1-.463-.459c0-.243.218-.459.463-.459zM.002 7.957c0-.243.218-.459.463-.459h5.526c.245 0 .463.216.463.459a.475.475 0 0 1-.463.459H.465a.457.457 0 0 1-.463-.46zm6.48 2.51a.475.475 0 0 1-.464.458H2.452a.475.475 0 0 1-.463-.458c0-.243.218-.46.463-.46h3.566c.273 0 .463.19.463.46zm4.137-2.456c0-.243.218-.459.463-.459h3.593l-.626-.62c-.19-.19-.19-.486 0-.648.19-.189.49-.189.653 0l1.416 1.403c.027.027.027.054.054.054 0 0 0 .027.027.027 0 .027.028.027.028.054s0 .027.027.054v.216c0 .027 0 .027-.027.054 0 .026-.028.026-.028.053 0 0 0 .028-.027.028-.027.027-.027.054-.054.054L14.62 9.765a.504.504 0 0 1-.327.135.503.503 0 0 1-.327-.135c-.19-.19-.19-.486 0-.648l.708-.701h-3.593c-.245.053-.463-.162-.463-.405z"/></g></g></svg>